<?xml version="1.0" encoding="utf-8"?>
<!-- Svg Vector Icons : http://www.onlinewebfonts.com/icon -->
<!DOCTYPE svg PUBLIC "-//W3C//DTD SVG 1.1//EN" "http://www.w3.org/Graphics/SVG/1.1/DTD/svg11.dtd">
<svg version="1.1" xmlns="http://www.w3.org/2000/svg" xmlns:xlink="http://www.w3.org/1999/xlink" x="0px" y="0px" viewBox="0 0 1000 1000" enable-background="new 0 0 1000 1000" xml:space="preserve">
<metadata> Svg Vector Icons : http://www.onlinewebfonts.com/icon </metadata>
<g><g transform="translate(0.000000,511.000000) scale(0.100000,-0.100000)"><path d="M4598,3821.9c-1114-120.6-2155.2-746.5-2727.5-1640.3l-76.6-118.7h-717.8c-413.4,0-746.5-7.7-786.7-19.1c-88.1-24.9-168.4-111-181.8-193.3c-7.7-49.8,51.7-266.1,258.4-924.5L634,64.6L368-850.4c-147.4-505.3-268-934.1-268-955.1c0-80.4,59.3-168.4,141.6-208.6c78.5-36.4,114.8-38.3,886.2-38.3h803.9l118.7-153.1c916.8-1182.9,2541.9-1692,3996.6-1251.8c710.1,214.4,1366.6,658.4,1827.9,1236.5l134,168.4h830.7c537.9,0,847.9,7.6,882.4,21c80.4,30.6,157,111,170.3,181.8c9.6,47.9-51.7,281.4-258.4,987.7L9364.1,62.6l268,857.5c147.4,472.8,268,878.6,268,899.6c0,57.4-65.1,157-128.2,199.1c-47.9,30.6-118.7,34.4-840.3,40.2l-788.6,5.7l-70.8,109.1c-137.8,208.6-312,415.4-509.1,608.7c-566.6,549.3-1232.7,882.4-2027,1012.5C5310.1,3831.4,4814.3,3846.7,4598,3821.9z M5574.2,3289.8c752.2-149.3,1458.5-572.3,1910.2-1146.5l65.1-80.4H4971.3H2395l21.1,40.2c11.5,21.1,109.1,130.2,216.3,241.2c514.9,534,1165.7,867.1,1900.7,972.3C4802.9,3354.8,5312,3341.4,5574.2,3289.8z M9306.6,1548c0-9.6-99.5-335-220.1-721.6c-120.6-386.6-220.1-731.2-220.1-763.7c0-30.6,103.4-405.8,227.8-832.6l225.8-775.2l-4316.2-5.7c-2373.4-1.9-4320-1.9-4322,1.9c-3.8,1.9,97.6,356,223.9,784.8c124.4,430.7,227.8,803.9,227.8,832.6c0,26.8-99.5,367.5-220.1,754.1c-120.6,386.6-220.1,712-220.1,723.5c0,13.4,1353.2,19.1,4306.6,19.1C7553.4,1565.2,9306.6,1557.5,9306.6,1548z M7287.3-2150C6305.4-3154.9,4778-3409.5,3516.6-2779.7c-289,145.5-539.8,323.5-775.2,549.3l-181.8,176.1l2411.7,1.9h2409.8L7287.3-2150z"/><path d="M4492.8,2945.2c-262.2-47.9-476.6-118.7-733.1-243.1c-231.6-112.9-275.6-158.9-231.6-243.1c51.7-95.7,101.4-93.8,315.8,15.3c348.4,178,704.4,260.3,1127.4,260.3c432.6,1.9,775.2-82.3,1159.9-283.3c229.7-118.7,296.7-126.3,338.8-38.3c45.9,93.8,1.9,141.6-241.2,266.1c-223.9,112.9-461.3,199.1-712,254.6C5292.9,2983.5,4735.9,2991.2,4492.8,2945.2z"/><path d="M2550,91.4v-918.8h107.2h107.2L2756.7-56l-5.7,773.3l91.9-170.4C2925.2,390,3089.8,122,3526.2-574.7L3685-829.3l116.8,5.8l116.8,5.7l5.7,914.9l3.8,913h-116.8h-116.8l7.7-750.3l7.7-752.2l-74.6,143.6c-99.5,193.3-227.8,405.8-555.1,918.7l-273.7,430.7l-128.2,5.7L2550,1012V91.4z"/><path d="M4330.1,91.4v-918.8h516.8h516.8v95.7v95.7l-70.8,1.9c-40.2,1.9-216.3,1.9-392.4,1.9l-321.6-1.9V-301v335H4933h354.1v95.7v95.7H4933h-354.1V522v296.7h373.2h373.2v95.7v95.7h-497.7h-497.7V91.4z"/><path d="M5541.7,985.2c5.7-13.4,111-426.8,235.4-918.8l227.8-895.8l122.5,5.8l124.4,5.7l166.5,612.5c91.9,336.9,181.8,685.2,201,773.3l34.5,162.7l51.7-254.6c28.7-139.7,111-490,179.9-779l128.2-524.4h120.6c99.5,0,124.4,5.7,132.1,34.5c5.7,17.2,118.7,415.4,250.7,884.3c132.1,468.9,245,867.1,250.7,886.2c9.6,28.7-3.8,32.5-111,32.5h-120.6l-134-513c-72.7-281.4-160.8-627.8-193.3-769.5c-34.5-141.7-65.1-245-70.8-229.7c-5.7,15.3-19.1,80.4-30.6,143.6c-11.5,63.2-86.1,396.2-168.4,742.7l-147.4,625.9h-124.4h-126.3l-176.1-675.7c-97.6-369.4-181.8-708.2-189.5-750.3c-21.1-132.1-38.3-130.2-63.2,3.8c-21,118.7-266,1181-310.1,1351.3l-19.1,70.8h-124.4C5562.7,1010.1,5534,1004.4,5541.7,985.2z"/><path d="M3654.4-2259.1c-42.1-45.9-42.1-124.4,1.9-160.8c91.9-82.3,457.5-224,740.7-287.1c246.9-53.6,723.5-68.9,976.2-28.7c342.6,55.5,828.8,223.9,870.9,302.4c45.9,84.2-3.8,189.5-90,189.5c-21.1,0-101.4-28.7-179.9-65.1c-357.9-164.6-782.9-233.5-1217.4-201c-268,23-518.7,84.2-784.8,197.1C3742.5-2215.1,3700.4-2207.4,3654.4-2259.1z"/></g></g>
</svg>